<?xml version="1.0" encoding="utf-8"?>
<!-- Generator: Adobe Illustrator 23.0.3, SVG Export Plug-In . SVG Version: 6.00 Build 0)  -->
<svg version="1.1" id="Layer_1" xmlns="http://www.w3.org/2000/svg" xmlns:xlink="http://www.w3.org/1999/xlink" x="0px" y="0px"
	 viewBox="0 0 256.3 256" style="enable-background:new 0 0 256.3 256;" xml:space="preserve">
<style type="text/css">
	.st0{fill:#FFFFFF;}
	.st1{fill:#1E1E1E;}
</style>
<circle class="st0" cx="128.1" cy="128" r="119"/>
<g>
	<g>
		<path class="st1" d="M128,17c29.6,0,57.5,11.5,78.5,32.5S239,98.3,239,128s-11.5,57.5-32.5,78.5S157.7,239,128,239
			s-57.5-11.5-78.5-32.5S17,157.7,17,128s11.5-57.5,32.5-78.5S98.4,17,128,17 M128,0C57.3,0,0,57.3,0,128s57.3,128,128,128
			s128-57.3,128-128S198.7,0,128,0L128,0z"/>
		<path class="st1" d="M72.4,113.5l15.4,33.7c0.1,0.1,0.2,0.1,0.3,0L129.5,60c0.1-0.1,0.2-0.1,0.3,0l36.8,77.4l8.1,17l5.9,12.3
			c0.1,0.1,0.2,0.1,0.3,0l16.8-36.8c0.1-0.1,0.2-0.1,0.3,0l33.5,73.4c0,0.1,0.2,0.1,0.3,0c13.6-18.7,22.2-41.1,24.1-65.5
			c5.8-76.9-58.2-142-135.2-137.5C53.3,4.1,0,59.9,0,128c0,30.5,10.7,58.5,28.5,80.5c0.1,0.1,0.2,0.1,0.3,0l43.3-95
			C72.2,113.4,72.3,113.4,72.4,113.5z"/>
	</g>
</g>
</svg>
